# xmcd CD database file
#
# Track frame offsets:
#	150
#	35047
#	162797
#	257732
#	302839
#
# Disc length: 4286 seconds
#
# Revision: 0
# Processed by: cddbd v1.5.1PL0 Copyright (c) Steve Scherf et al.
# Submitted via: CDex 1.51
#
DISCID=3b10bc05
DTITLE=Pat Metheny Group - The Way Up to Toronto (1/2)
DYEAR=2005
DGENRE=Jazz
TTITLE0=This is Not America > The Way Up Intro
TTITLE1=Part 1
TTITLE2=Part 2
TTITLE3=Part 3
TTITLE4=Banter
EXTD=YEAR: 2005
EXTT0=
EXTT1=
EXTT2=
EXTT3=
EXTT4=
PLAYORDER=
